<svg width="35" height="40" viewBox="0 0 35 40" fill="none" xmlns="http://www.w3.org/2000/svg">
<path d="M11.25 37.4219H3.75C1.67969 37.4219 0 35.7422 0 33.6719V6.17188C0 4.10156 1.67969 2.42188 3.75 2.42188H11.25C13.3203 2.42188 15 4.10156 15 6.17188V33.6719C15 35.7422 13.3203 37.4219 11.25 37.4219ZM35 33.6719V6.17188C35 4.10156 33.3203 2.42188 31.25 2.42188H23.75C21.6797 2.42188 20 4.10156 20 6.17188V33.6719C20 35.7422 21.6797 37.4219 23.75 37.4219H31.25C33.3203 37.4219 35 35.7422 35 33.6719Z" fill="white"/>
</svg>
